<svg xmlns="http://www.w3.org/2000/svg" width="194.27999999999997" height="35" viewBox="0 0 194.27999999999997 35"><rect class="svg__rect" x="0" y="0" width="66.39" height="35" fill="#5A5B9F"/><rect class="svg__rect" x="64.39" y="0" width="129.89" height="35" fill="#A7BFC1"/><path class="svg__text" d="M16.67 22L14.22 22L14.22 13.47L16.74 13.47Q17.87 13.47 18.74 13.97Q19.62 14.48 20.10 15.40Q20.58 16.33 20.58 17.52L20.58 17.52L20.58 17.95Q20.58 19.16 20.10 20.08Q19.61 21.00 18.72 21.50Q17.83 22 16.67 22L16.67 22ZM15.70 14.66L15.70 20.82L16.67 20.82Q17.83 20.82 18.46 20.09Q19.08 19.36 19.09 17.99L19.09 17.99L19.09 17.52Q19.09 16.13 18.49 15.40Q17.89 14.66 16.74 14.66L16.74 14.66L15.70 14.66ZM25.82 22L24.28 22L27.51 13.47L28.84 13.47L32.06 22L30.52 22L29.82 20.01L26.52 20.01L25.82 22ZM28.17 15.28L26.93 18.82L29.40 18.82L28.17 15.28ZM37.70 14.66L35.06 14.66L35.06 13.47L41.83 13.47L41.83 14.66L39.17 14.66L39.17 22L37.70 22L37.70 14.66ZM46.37 22L44.83 22L48.05 13.47L49.38 13.47L52.61 22L51.06 22L50.36 20.01L47.06 20.01L46.37 22ZM48.71 15.28L47.48 18.82L49.95 18.82L48.71 15.28Z" fill="#FFFFFF"/><path class="svg__text" d="M82.55 22L78.58 22L78.58 13.60L82.55 13.60Q83.93 13.60 85.00 14.12Q86.07 14.63 86.66 15.58Q87.24 16.53 87.24 17.80L87.24 17.80Q87.24 19.07 86.66 20.02Q86.07 20.97 85.00 21.48Q83.93 22 82.55 22L82.55 22ZM80.96 15.50L80.96 20.10L82.46 20.10Q83.53 20.10 84.19 19.49Q84.84 18.88 84.84 17.80L84.84 17.80Q84.84 16.72 84.19 16.11Q83.53 15.50 82.46 15.50L82.46 15.50L80.96 15.50ZM91.54 17.80L91.54 17.80Q91.54 16.55 92.15 15.55Q92.75 14.56 93.82 14.00Q94.88 13.43 96.21 13.43L96.21 13.43Q97.54 13.43 98.60 14.00Q99.67 14.56 100.27 15.55Q100.88 16.55 100.88 17.80L100.88 17.80Q100.88 19.05 100.27 20.04Q99.67 21.04 98.61 21.60Q97.54 22.17 96.21 22.17L96.21 22.17Q94.88 22.17 93.82 21.60Q92.75 21.04 92.15 20.04Q91.54 19.05 91.54 17.80ZM93.94 17.80L93.94 17.80Q93.94 18.51 94.24 19.05Q94.54 19.60 95.06 19.90Q95.58 20.20 96.21 20.20L96.21 20.20Q96.85 20.20 97.36 19.90Q97.88 19.60 98.18 19.05Q98.48 18.51 98.48 17.80L98.48 17.80Q98.48 17.09 98.18 16.54Q97.88 16 97.36 15.70Q96.85 15.40 96.21 15.40L96.21 15.40Q95.57 15.40 95.06 15.70Q94.54 16 94.24 16.54Q93.94 17.09 93.94 17.80ZM107.69 22L104.96 13.60L107.41 13.60L109.10 18.96L110.87 13.60L113.06 13.60L114.75 19.01L116.52 13.60L118.78 13.60L116.06 22L113.52 22L111.91 16.89L110.23 22L107.69 22ZM125.63 22L123.30 22L123.30 13.60L125.25 13.60L128.96 18.07L128.96 13.60L131.29 13.60L131.29 22L129.34 22L125.63 17.52L125.63 22ZM142.84 22L136.45 22L136.45 13.60L138.83 13.60L138.83 20.11L142.84 20.11L142.84 22ZM146.83 17.80L146.83 17.80Q146.83 16.55 147.43 15.55Q148.03 14.56 149.10 14.00Q150.16 13.43 151.49 13.43L151.49 13.43Q152.82 13.43 153.89 14.00Q154.95 14.56 155.56 15.55Q156.16 16.55 156.16 17.80L156.16 17.80Q156.16 19.05 155.56 20.04Q154.95 21.04 153.89 21.60Q152.83 22.17 151.49 22.17L151.49 22.17Q150.16 22.17 149.10 21.60Q148.03 21.04 147.43 20.04Q146.83 19.05 146.83 17.80ZM149.22 17.80L149.22 17.80Q149.22 18.51 149.53 19.05Q149.83 19.60 150.34 19.90Q150.86 20.20 151.49 20.20L151.49 20.20Q152.13 20.20 152.65 19.90Q153.16 19.60 153.46 19.05Q153.76 18.51 153.76 17.80L153.76 17.80Q153.76 17.09 153.46 16.54Q153.16 16 152.65 15.70Q152.13 15.40 151.49 15.40L151.49 15.40Q150.85 15.40 150.34 15.70Q149.83 16 149.53 16.54Q149.22 17.09 149.22 17.80ZM162.31 22L159.88 22L163.59 13.60L165.94 13.60L169.65 22L167.18 22L166.52 20.37L162.97 20.37L162.31 22ZM164.75 15.93L163.66 18.61L165.82 18.61L164.75 15.93ZM177.78 22L173.80 22L173.80 13.60L177.78 13.60Q179.16 13.60 180.23 14.12Q181.29 14.63 181.88 15.58Q182.47 16.53 182.47 17.80L182.47 17.80Q182.47 19.07 181.88 20.02Q181.29 20.97 180.23 21.48Q179.16 22 177.78 22L177.78 22ZM176.18 15.50L176.18 20.10L177.68 20.10Q178.76 20.10 179.41 19.49Q180.07 18.88 180.07 17.80L180.07 17.80Q180.07 16.72 179.41 16.11Q178.76 15.50 177.68 15.50L177.68 15.50L176.18 15.50Z" fill="#FFFFFF" x="77.39"/></svg>