<svg xmlns="http://www.w3.org/2000/svg" width="215.91" height="35" viewBox="0 0 215.91 35"><rect class="svg__rect" x="0" y="0" width="76.5" height="35" fill="#5A5B9F"/><rect class="svg__rect" x="74.5" y="0" width="141.41" height="35" fill="#A7BFC1"/><path class="svg__text" d="M15.70 22L14.22 22L14.22 13.47L17.48 13.47Q18.91 13.47 19.75 14.21Q20.59 14.96 20.59 16.18L20.59 16.18Q20.59 17.44 19.77 18.13Q18.95 18.83 17.46 18.83L17.46 18.83L15.70 18.83L15.70 22ZM15.70 14.66L15.70 17.64L17.48 17.64Q18.27 17.64 18.69 17.27Q19.10 16.90 19.10 16.19L19.10 16.19Q19.10 15.50 18.68 15.09Q18.26 14.68 17.52 14.66L17.52 14.66L15.70 14.66ZM25.65 22L24.11 22L27.34 13.47L28.67 13.47L31.89 22L30.35 22L29.65 20.01L26.35 20.01L25.65 22ZM28.00 15.28L26.76 18.82L29.23 18.82L28.00 15.28ZM37.33 22L35.85 22L35.85 13.47L39.11 13.47Q40.54 13.47 41.38 14.21Q42.23 14.96 42.23 16.18L42.23 16.18Q42.23 17.44 41.40 18.13Q40.58 18.83 39.10 18.83L39.10 18.83L37.33 18.83L37.33 22ZM37.33 14.66L37.33 17.64L39.11 17.64Q39.90 17.64 40.32 17.27Q40.74 16.90 40.74 16.19L40.74 16.19Q40.74 15.50 40.31 15.09Q39.89 14.68 39.15 14.66L39.15 14.66L37.33 14.66ZM52.09 22L46.51 22L46.51 13.47L52.05 13.47L52.05 14.66L47.99 14.66L47.99 17.02L51.49 17.02L51.49 18.19L47.99 18.19L47.99 20.82L52.09 20.82L52.09 22ZM57.76 22L56.28 22L56.28 13.47L59.28 13.47Q60.76 13.47 61.56 14.13Q62.36 14.79 62.36 16.05L62.36 16.05Q62.36 16.90 61.95 17.48Q61.54 18.06 60.80 18.37L60.80 18.37L62.72 21.92L62.72 22L61.13 22L59.42 18.71L57.76 18.71L57.76 22ZM57.76 14.66L57.76 17.52L59.29 17.52Q60.04 17.52 60.46 17.15Q60.88 16.77 60.88 16.11L60.88 16.11Q60.88 15.43 60.49 15.05Q60.10 14.68 59.33 14.66L59.33 14.66L57.76 14.66Z" fill="#FFFFFF"/><path class="svg__text" d="M90.48 15.48L87.90 15.48L87.90 13.60L95.42 13.60L95.42 15.48L92.85 15.48L92.85 22L90.48 22L90.48 15.48ZM102.17 22L99.79 22L99.79 13.60L102.17 13.60L102.17 16.76L105.41 16.76L105.41 13.60L107.78 13.60L107.78 22L105.41 22L105.41 18.72L102.17 18.72L102.17 22ZM119.69 22L112.95 22L112.95 13.60L119.54 13.60L119.54 15.44L115.30 15.44L115.30 16.85L119.03 16.85L119.03 18.63L115.30 18.63L115.30 20.17L119.69 20.17L119.69 22ZM124.07 17.80L124.07 17.80Q124.07 16.54 124.66 15.54Q125.26 14.55 126.31 13.99Q127.37 13.43 128.68 13.43L128.68 13.43Q129.84 13.43 130.76 13.84Q131.68 14.25 132.30 15.02L132.30 15.02L130.79 16.39Q129.97 15.40 128.81 15.40L128.81 15.40Q128.12 15.40 127.59 15.70Q127.06 16 126.76 16.54Q126.46 17.09 126.46 17.80L126.46 17.80Q126.46 18.51 126.76 19.05Q127.06 19.60 127.59 19.90Q128.12 20.20 128.81 20.20L128.81 20.20Q129.97 20.20 130.79 19.22L130.79 19.22L132.30 20.58Q131.69 21.35 130.76 21.76Q129.84 22.17 128.68 22.17L128.68 22.17Q127.37 22.17 126.31 21.61Q125.26 21.05 124.66 20.05Q124.07 19.06 124.07 17.80ZM139.42 22L135.83 13.60L138.40 13.60L140.68 19.07L143.00 13.60L145.35 13.60L141.76 22L139.42 22ZM151.89 22L149.51 22L149.51 13.60L156.10 13.60L156.10 15.44L151.89 15.44L151.89 17.28L155.60 17.28L155.60 19.12L151.89 19.12L151.89 22ZM160.18 20.75L160.18 20.75Q160.18 20.15 160.57 19.78Q160.96 19.41 161.55 19.41L161.55 19.41Q162.15 19.41 162.53 19.78Q162.91 20.15 162.91 20.75L162.91 20.75Q162.91 21.34 162.52 21.72Q162.14 22.11 161.55 22.11L161.55 22.11Q160.97 22.11 160.57 21.72Q160.18 21.34 160.18 20.75ZM167.14 17.80L167.14 17.80Q167.14 16.54 167.74 15.54Q168.34 14.55 169.39 13.99Q170.44 13.43 171.76 13.43L171.76 13.43Q172.92 13.43 173.84 13.84Q174.76 14.25 175.38 15.02L175.38 15.02L173.87 16.39Q173.05 15.40 171.89 15.40L171.89 15.40Q171.20 15.40 170.67 15.70Q170.13 16 169.84 16.54Q169.54 17.09 169.54 17.80L169.54 17.80Q169.54 18.51 169.84 19.05Q170.13 19.60 170.67 19.90Q171.20 20.20 171.89 20.20L171.89 20.20Q173.05 20.20 173.87 19.22L173.87 19.22L175.38 20.58Q174.77 21.35 173.84 21.76Q172.92 22.17 171.76 22.17L171.76 22.17Q170.44 22.17 169.39 21.61Q168.34 21.05 167.74 20.05Q167.14 19.06 167.14 17.80ZM179.48 17.80L179.48 17.80Q179.48 16.55 180.09 15.55Q180.69 14.56 181.76 14.00Q182.82 13.43 184.15 13.43L184.15 13.43Q185.48 13.43 186.54 14.00Q187.61 14.56 188.21 15.55Q188.82 16.55 188.82 17.80L188.82 17.80Q188.82 19.05 188.21 20.04Q187.61 21.04 186.55 21.60Q185.48 22.17 184.15 22.17L184.15 22.17Q182.82 22.17 181.76 21.60Q180.69 21.04 180.09 20.04Q179.48 19.05 179.48 17.80ZM181.88 17.80L181.88 17.80Q181.88 18.51 182.18 19.05Q182.48 19.60 183.00 19.90Q183.52 20.20 184.15 20.20L184.15 20.20Q184.79 20.20 185.30 19.90Q185.82 19.60 186.12 19.05Q186.42 18.51 186.42 17.80L186.42 17.80Q186.42 17.09 186.12 16.54Q185.82 16 185.30 15.70Q184.79 15.40 184.15 15.40L184.15 15.40Q183.51 15.40 183.00 15.70Q182.48 16 182.18 16.54Q181.88 17.09 181.88 17.80ZM195.74 22L193.55 22L193.55 13.60L195.50 13.60L198.46 18.45L201.34 13.60L203.29 13.60L203.31 22L201.14 22L201.11 17.55L198.95 21.17L197.89 21.17L195.74 17.67L195.74 22Z" fill="#FFFFFF" x="87.5"/></svg>